HIERARCHY
ROOT Hips
{
	OFFSET 0.00000 0.00000 0.00000
	CHANNELS 6 Xposition Yposition Zposition Zrotation Yrotation Xrotation 
	JOINT LHipJoint
	{
		OFFSET 0 0 0
		CHANNELS 3 Zrotation Yrotation Xrotation
		JOINT LeftUpLeg
		{
			OFFSET 1.62964 -1.40469 0.78906
			CHANNELS 3 Zrotation Yrotation Xrotation
			JOINT LeftLeg
			{
				OFFSET 2.29640 -6.30932 0.00000
				CHANNELS 3 Zrotation Yrotation Xrotation
				JOINT LeftFoot
				{
					OFFSET 2.29451 -6.30412 0.00000
					CHANNELS 3 Zrotation Yrotation Xrotation
					JOINT LeftToeBase
					{
						OFFSET 0.03611 -0.09921 1.56387
						CHANNELS 3 Zrotation Yrotation Xrotation
						End Site
						{
							OFFSET 0.00000 -0.00000 0.80291
						}
					}
				}
			}
		}
	}
	JOINT RHipJoint
	{
		OFFSET 0 0 0
		CHANNELS 3 Zrotation Yrotation Xrotation
		JOINT RightUpLeg
		{
			OFFSET -1.73712 -1.40469 0.78906
			CHANNELS 3 Zrotation Yrotation Xrotation
			JOINT RightLeg
			{
				OFFSET -2.28137 -6.26801 0.00000
				CHANNELS 3 Zrotation Yrotation Xrotation
				JOINT RightFoot
				{
					OFFSET -2.28681 -6.28298 0.00000
					CHANNELS 3 Zrotation Yrotation Xrotation
					JOINT RightToeBase
					{
						OFFSET -0.15927 -0.43759 1.61103
						CHANNELS 3 Zrotation Yrotation Xrotation
						End Site
						{
							OFFSET -0.00000 -0.00000 0.84630
						}
					}
				}
			}
		}
	}
	JOINT LowerBack
	{
		OFFSET 0 0 0
		CHANNELS 3 Zrotation Yrotation Xrotation
		JOINT Spine
		{
			OFFSET -0.04227 2.04338 -0.00225
			CHANNELS 3 Zrotation Yrotation Xrotation
			JOINT Spine1
			{
				OFFSET -0.02148 2.04482 -0.04273
				CHANNELS 3 Zrotation Yrotation Xrotation
				JOINT Neck
				{
					OFFSET 0 0 0
					CHANNELS 3 Zrotation Yrotation Xrotation
					JOINT Neck1
					{
						OFFSET 0.09180 1.44629 0.19359
						CHANNELS 3 Zrotation Yrotation Xrotation
						JOINT Head
						{
							OFFSET 0.00887 1.40645 0.14750
							CHANNELS 3 Zrotation Yrotation Xrotation
							End Site
							{
								OFFSET -0.00669 1.50671 0.03707
							}
						}
					}
				}
				JOINT LeftShoulder
				{
					OFFSET 0 0 0
					CHANNELS 3 Zrotation Yrotation Xrotation
					JOINT LeftArm
					{
						OFFSET 2.17674 1.86763 -0.06520
						CHANNELS 3 Zrotation Yrotation Xrotation
						JOINT LeftForeArm
						{
							OFFSET 4.65776 -0.00000 0.00000
							CHANNELS 3 Zrotation Yrotation Xrotation
							JOINT LeftHand
							{
								OFFSET 3.55539 -0.00000 0.00000
								CHANNELS 3 Zrotation Yrotation Xrotation
								JOINT LeftFingerBase
								{
									OFFSET 0 0 0
									CHANNELS 3 Zrotation Yrotation Xrotation
									JOINT LeftHandIndex1
									{
										OFFSET 0.70726 -0.00000 0.00000
										CHANNELS 3 Zrotation Yrotation Xrotation
										End Site
										{
											OFFSET 0.57022 -0.00000 0.00000
										}
									}
								}
								JOINT LThumb
								{
									OFFSET 0 0 0
									CHANNELS 3 Zrotation Yrotation Xrotation
									End Site
									{
										OFFSET 0.57892 -0.00000 0.57892
									}
								}
							}
						}
					}
				}
				JOINT RightShoulder
				{
					OFFSET 0 0 0
					CHANNELS 3 Zrotation Yrotation Xrotation
					JOINT RightArm
					{
						OFFSET -2.80694 1.55459 -0.32496
						CHANNELS 3 Zrotation Yrotation Xrotation
						JOINT RightForeArm
						{
							OFFSET -4.71925 -0.00000 -0.00000
							CHANNELS 3 Zrotation Yrotation Xrotation
							JOINT RightHand
							{
								OFFSET -3.56990 -0.00000 0.00000
								CHANNELS 3 Zrotation Yrotation Xrotation
								JOINT RightFingerBase
								{
									OFFSET 0 0 0
									CHANNELS 3 Zrotation Yrotation Xrotation
									JOINT RightHandIndex1
									{
										OFFSET -0.50776 -0.00000 0.00000
										CHANNELS 3 Zrotation Yrotation Xrotation
										End Site
										{
											OFFSET -0.40937 -0.00000 0.00000
										}
									}
								}
								JOINT RThumb
								{
									OFFSET 0 0 0
									CHANNELS 3 Zrotation Yrotation Xrotation
									End Site
									{
										OFFSET -0.41562 -0.00000 0.41562
									}
								}
							}
						}
					}
				}
			}
		}
	}
}
MOTION
Frames: 9
Frame Time: .0083333
14.3458 17.8276 19.0122 178.0260 -4.4904 -155.7670 0.0000 0.0000 0.0000 -6.9326 -21.9411 -30.9362 0.6543 5.1740 14.4056 0.0247 0.7448 -3.3425 5.0324 -13.4202 -40.9625 0.0000 0.0000 0.0000 13.1182 16.9095 -7.8067 -0.1831 -2.7562 7.6006 -1.6420 -8.0619 -28.2767 -1.8803 8.6121 -24.5893 -8.4886 -1.4934 -24.5837 -1.2458 0.5102 1.3588 3.5845 -0.4985 15.4446 -2.1968 1.8367 -0.9278 7.6809 -1.1065 23.2332 2.7181 -0.9169 7.2700 0.0000 0.0000 0.0000 -80.5761 4.5590 16.2113 12.0273 -19.8456 -2.1115 -0.0000 -0.0000 6.2863 20.2940 -12.6545 -4.6315 -7.1250 0.0000 -0.0000 -4.8283 16.5482 3.2648 0.0000 0.0000 0.0000 87.3293 -6.3307 11.7051 -24.5186 35.7079 -8.0072 0.0000 -0.0000 -5.9861 -8.2693 -51.7927 6.5151 7.1250 -0.0000 -0.0000 64.4359 -73.9194 -48.5797
14.2832 17.8284 18.9783 177.8610 -4.2388 -155.4700 0.0000 0.0000 0.0000 -7.4033 -21.8625 -31.1917 0.6737 5.2487 14.6194 0.0299 0.5528 -3.5191 4.9566 -13.3348 -40.6351 0.0000 0.0000 0.0000 12.5650 17.2876 -8.2007 -0.2116 -2.9617 8.1721 -1.6838 -8.0932 -28.5797 -1.9497 8.7605 -25.0491 -8.7602 -1.5132 -24.7280 -1.3573 0.5860 1.3589 3.6358 -0.4891 15.5193 -2.0983 2.3119 -1.3446 7.7219 -0.5394 23.8068 2.7596 -0.6336 7.5025 0.0000 0.0000 0.0000 -80.4040 4.2890 16.4686 12.2190 -20.1323 -2.1771 -0.0000 -0.0000 6.2595 20.0776 -12.5802 -4.5517 -7.1250 0.0000 -0.0000 -4.9761 16.6465 3.3549 0.0000 0.0000 0.0000 87.4621 -6.4449 11.7545 -24.7997 35.9986 -8.1719 0.0000 -0.0000 -6.0258 -8.0816 -52.9190 6.4630 7.1250 -0.0000 -0.0000 68.3001 -74.2281 -52.4044
14.2124 17.8271 18.9584 177.5890 -3.5165 -154.5750 0.0000 0.0000 0.0000 -7.8393 -21.7516 -32.1977 0.7008 5.3508 14.9119 0.0352 0.5841 -3.8082 4.8825 -13.2503 -40.3127 0.0000 0.0000 0.0000 11.3977 17.5853 -9.8367 -0.2646 -3.3093 9.1411 -1.6804 -7.8136 -28.3763 -2.0507 8.9708 -25.7041 -9.1136 -1.4423 -25.3501 -1.5134 0.8273 1.4297 3.6228 -0.4007 15.1534 -1.8050 2.7232 -1.7202 7.6225 -0.1035 24.5584 2.7167 -0.4209 7.8004 -0.0000 0.0000 0.0000 -80.1472 4.3320 16.9377 12.5347 -20.6017 -2.2870 -0.0000 -0.0000 5.9314 20.0126 -12.5683 -4.5315 -7.1250 0.0000 -0.0000 -5.0208 16.6648 3.3833 -0.0000 0.0000 0.0000 87.5570 -6.7332 11.8715 -25.0206 36.2250 -8.3021 0.0000 -0.0000 -6.2007 -7.8730 -53.4118 6.3357 7.1250 -0.0000 -0.0000 70.0878 -74.2932 -54.1195
14.1560 17.8313 18.9149 177.5140 -3.5097 -154.6450 0.0000 0.0000 0.0000 -8.3221 -21.6196 -31.9850 0.7080 5.3779 14.9897 0.0400 0.2309 -3.8667 4.8169 -13.1746 -40.0258 0.0000 0.0000 0.0000 11.1690 17.6949 -9.8172 -0.2964 -3.5009 9.6766 -1.6721 -8.0292 -28.4597 -2.0141 8.8954 -25.4687 -9.3625 -1.6179 -25.1908 -1.4799 0.6656 1.5551 3.7373 -0.4969 15.2361 -1.9878 2.3095 -1.7911 7.6171 -0.5731 24.1375 2.7103 -0.6414 7.6964 0.0000 -0.0000 0.0000 -80.0581 4.1165 17.0276 12.8375 -21.0487 -2.3946 -0.0000 -0.0000 5.5699 19.9530 -12.6571 -4.5482 -7.1250 0.0000 -0.0000 -5.0647 16.5767 3.4228 0.0000 -0.0000 0.0000 87.4139 -6.6742 12.0260 -24.9076 36.1094 -8.2354 0.0000 -0.0000 -6.2034 -7.3017 -52.0247 5.7676 7.1250 -0.0000 -0.0000 65.7407 -73.6453 -49.4383
14.0945 17.8338 18.8781 177.5470 -3.3914 -154.8020 0.0000 0.0000 0.0000 -8.7154 -21.5127 -31.6399 0.7098 5.3846 15.0089 0.0435 0.0647 -3.9620 4.7369 -13.0813 -39.6734 0.0000 0.0000 0.0000 11.0271 17.7691 -9.7389 -0.3294 -3.6889 10.2030 -1.6846 -7.9941 -28.5213 -2.0900 9.0512 -25.9555 -9.3694 -1.5512 -24.9520 -1.5227 0.7495 1.6434 3.7274 -0.4560 15.2090 -2.0366 1.9580 -1.9781 7.6196 -1.0836 24.2321 2.6863 -0.8856 7.7903 0.0000 -0.0000 0.0000 -79.8437 3.9116 17.6732 13.1636 -21.5265 -2.5130 -0.0000 -0.0000 5.1697 20.2790 -12.2040 -4.4662 -7.1250 0.0000 -0.0000 -4.8255 17.0249 3.2127 0.0000 -0.0000 0.0000 87.4469 -6.7416 12.1756 -25.0247 36.2292 -8.3045 0.0000 -0.0000 -6.9980 -8.4164 -52.6239 6.7059 7.1250 -0.0000 -0.0000 67.1304 -74.2605 -51.3765
14.0232 17.8388 18.8387 177.6780 -3.2430 -155.2100 0.0000 0.0000 0.0000 -9.1021 -21.5663 -30.8153 0.6947 5.3281 14.8467 0.0477 0.1624 -4.1872 4.6689 -13.0010 -39.3721 0.0000 0.0000 0.0000 10.9933 17.7835 -9.4373 -0.3643 -3.8770 10.7308 -1.7034 -7.8683 -28.5662 -2.2039 9.2785 -26.6705 -9.1915 -1.3559 -24.6300 -1.6240 0.9457 1.4494 3.6994 -0.3586 15.5276 -1.9828 2.0246 -2.0274 7.6753 -1.0928 24.5814 2.6985 -0.8942 7.9176 0.0000 0.0000 0.0000 -79.6396 3.7566 18.4553 13.5302 -22.0592 -2.6491 -0.0000 -0.0000 4.8634 20.7477 -11.7087 -4.3960 -7.1250 0.0000 -0.0000 -4.4845 17.5073 2.9368 0.0000 0.0000 0.0000 87.5010 -6.8856 11.9269 -24.9950 36.1988 -8.2869 0.0000 -0.0000 -6.8367 -7.6317 -52.3682 6.0573 7.1250 -0.0000 -0.0000 66.6789 -73.8852 -50.5492
13.9417 17.8555 18.7972 178.0670 -3.4461 -156.1690 0.0000 0.0000 0.0000 -9.3518 -21.8557 -29.3241 0.6753 5.2548 14.6368 0.0500 0.4130 -4.3966 4.6666 -12.9983 -39.3620 0.0000 0.0000 0.0000 11.4654 17.4636 -8.5940 -0.4024 -4.0725 11.2807 -1.7339 -7.7725 -28.7095 -2.2375 9.3442 -26.8781 -8.5259 -1.1420 -23.6663 -1.6062 0.9932 1.7967 3.3549 -0.2651 15.3912 -2.0658 1.8543 -1.5418 7.8810 -1.2137 23.7191 2.7622 -0.9322 7.5477 -0.0000 0.0000 0.0000 -79.4870 3.4038 18.7865 13.8584 -22.5319 -2.7736 -0.0000 -0.0000 4.6884 20.8829 -11.6536 -4.4068 -7.1250 0.0000 -0.0000 -4.3883 17.5539 2.8689 -0.0000 0.0000 0.0000 87.5232 -7.0263 11.9210 -25.0935 36.2994 -8.3452 0.0000 -0.0000 -6.7811 -7.6564 -51.8821 6.0373 7.1250 -0.0000 -0.0000 65.0787 -73.7251 -48.9363
13.8753 17.8667 18.7728 177.6030 -3.3727 -156.2280 0.0000 0.0000 0.0000 -10.3862 -21.8404 -29.0502 0.6750 5.2536 14.6334 0.0515 0.0728 -4.3139 4.6000 -12.9187 -39.0649 0.0000 0.0000 0.0000 10.7679 17.1590 -8.7519 -0.4416 -4.2639 11.8204 -1.7092 -7.8174 -28.5728 -2.2173 9.3047 -26.7533 -8.9962 -1.2409 -23.3186 -1.7361 0.9634 1.7881 3.4567 -0.3057 15.1808 -2.5037 1.7829 -1.2482 8.3684 -1.3728 23.4846 2.9852 -1.0199 7.4246 -0.0000 0.0000 0.0000 -79.3853 3.4242 19.1094 14.2973 -23.1581 -2.9440 -0.0000 -0.0000 4.2806 20.9638 -11.5328 -4.3803 -7.1250 0.0000 -0.0000 -4.3282 17.6751 2.8179 -0.0000 0.0000 0.0000 87.4485 -7.4162 12.2065 -25.2736 36.4823 -8.4520 0.0000 -0.0000 -7.1149 -8.3794 -52.5193 6.6671 7.1250 -0.0000 -0.0000 66.7943 -74.2128 -51.0191
13.7644 17.8309 18.8076 177.5620 -2.4126 -153.9910 0.0000 0.0000 0.0000 -10.6830 -20.9954 -31.9983 0.7200 5.4222 15.1168 0.0514 -0.8204 -4.0712 4.4570 -12.7449 -38.4210 0.0000 0.0000 0.0000 9.4052 16.3534 -12.6476 -0.5440 -4.7255 13.1273 -1.7393 -5.8524 -27.5955 -2.2149 9.3001 -26.7388 -8.4455 -0.9882 -24.8979 -2.0104 1.2271 1.1005 2.9288 -0.1482 15.2345 -2.5415 1.5675 -1.1596 8.4328 -1.7191 23.4943 2.9897 -1.1941 7.4338 -0.0000 0.0000 0.0000 -79.2841 3.3961 19.4779 14.7793 -23.8378 -3.1362 -0.0000 -0.0000 3.8076 21.1747 -11.7253 -4.5011 -7.1250 0.0000 -0.0000 -4.1865 17.4521 2.7456 -0.0000 0.0000 0.0000 87.3289 -7.5998 12.5265 -25.3603 36.5700 -8.5037 0.0000 -0.0000 -7.5993 -8.5370 -53.2376 6.8573 7.1250 -0.0000 -0.0000 69.1888 -74.4910 -53.5137
